# xmcd
#
# Track frame offsets: 
#        150
#        11535
#        23525
#        36277
#        48867
#        60580
#        71232
#        85172
#        96415
#        106985
#        115992
#        128720
#        144845
#        159147
#        171925
#
# Disc length: 2446 seconds
#
# Revision: 0
# Processed by: cddbd v1.4PL0 Copyright (c) Steve Scherf et al.
# Submitted via: ExactAudioCopy v0.90b4
#
DISCID=bb098c0f
DTITLE=Ray Charles - Confession Blues [CD1)
DYEAR=2001
DGENRE=Blues
TTITLE0=Confession Blues
TTITLE1=I Love You, I Love You (I Will Never Let You Go)
TTITLE2=Can Anyone Ask For More
TTITLE3=Rockin' Chair Blues
TTITLE4=See See Rider
TTITLE5=Th' Ego Song
TTITLE6=Late In The Evening Blues
TTITLE7=I'll Do Anything But Work
TTITLE8=I Wonder Who's Kissing Her Now
TTITLE9=All To Myself
TTITLE10=Lonely Boy
TTITLE11=Let Me Hear You Call My Name
TTITLE12=Walkin' And Talkin'
TTITLE13=Why Did You Go
TTITLE14=Guitar Blues
EXTD=
EXTT0=
EXTT1=
EXTT2=
EXTT3=
EXTT4=
EXTT5=
EXTT6=
EXTT7=
EXTT8=
EXTT9=
EXTT10=
EXTT11=
EXTT12=
EXTT13=
EXTT14=
PLAYORDER=
